<?xml version="1.0" encoding="utf-8"?>
<?xml-stylesheet type="text/xsl" href="rss1.xsl"?>
<rss version="2.0" xmlns:atom="http://www.w3.org/2005/Atom" xmlns:content="http://purl.org/rss/1.0/modules/content/" xmlns:dc="http://purl.org/dc/elements/1.1/" xmlns:media="http://search.yahoo.com/mrss/">
<channel>
 <title>Getty</title>
 <link>http://www.gettyimg.com/</link>
 <atom:link href="http://www.gettyimg.com/" rel="self" type="application/rss+xml" />

 
                <item>
                <title><![CDATA[【Requests】[REQ AUD] - The Shrink Next Door (Podcast)]]></title>
                <link><![CDATA[https://sharemania.us/threads/the-shrink-next-door-podcast.229674/]]></link>
                <description><![CDATA[<article>
<blockquote class="messageText SelectQuoteContainer ugc baseHtml">
Since it's no longer on Spotify and now it's only on Wondery, and since my device can't download it, I can't listen to it<br>
<br>
Is there any chance I can get the whole podcasts?<br>
<br>
<a href="https://wondery.com/links/shrink-next-door/" target="_blank" class="externalLink" rel="nofollow">https://wondery.com/links/shrink-next-door/</a>
<div class="messageTextEndMarker">&nbsp;</div>
</blockquote>
</article>]]></description>
                <author><![CDATA[adamfreakinglevine]]></author>
                </item>

                
                <item>
                <title><![CDATA[【HD Live Performances】WEB-RiP - Imagine.Dragons.Live.in.Vegas.2023.2160p.HULU.WEB-DL.DDP5.1.H.265-EDITH]]></title>
                <link><![CDATA[https://sharemania.us/threads/imagine-dragons-live-in-vegas-2023-2160p-hulu-web-dl-ddp5-1-h-265-edith.229673/]]></link>
                <description><![CDATA[<article>
<blockquote class="messageText SelectQuoteContainer ugc baseHtml">
<div style="text-align: center"><img src="https://i.imgur.com/zWaZwTt.jpg" class="bbCodeImage LbImage" alt="[​IMG]" data-url="https://i.imgur.com/zWaZwTt.jpg" style=""><br>
<div class="ToggleTriggerAnchor bbCodeSpoilerContainer">
<button type="button" class="button bbCodeSpoilerButton ToggleTrigger Tooltip JsOnly" data-target="> .SpoilerTarget"><span>Spoiler: <span class="SpoilerTitle">MediaInfo</span></span></button>
<div class="SpoilerTarget bbCodeSpoilerText">General<br>
Unique ID : 302621887205294146880569618433539391248 (0xE3AADAFE165C75F0A23AB1CD51A13F10)<br>
Complete name : D:\Imagine.Dragons.Live.in.Vegas.2023.2160p.HULU.WEB-DL.DDP5.1.H.265-EDITH.mkv.mkv<br>
Format : Matroska<br>
Format version : Version 4<br>
File size : 13.3 GiB<br>
Duration : 2 h 1 min<br>
Overall bit rate : 15.7 Mb/s<br>
Writing application : mkvmerge v76.0 ('Celebration') 64-bit<br>
Writing library : libebml v1.4.4 + libmatroska v1.7.1<br>
<br>
Video<br>
ID : 1<br>
Format : HEVC<br>
Format/Info : High Efficiency Video Coding<br>
Format profile : Main 10@L5.1@Main<br>
Codec ID : V_MPEGH/ISO/HEVC<br>
Duration : 2 h 1 min<br>
Bit rate : 15.4 Mb/s<br>
Width : 3 840 pixels<br>
Height : 2 160 pixels<br>
Display aspect ratio : 16:9<br>
Frame rate mode : Constant<br>
Frame rate : 23.976 (24000/1001) FPS<br>
Color space : YUV<br>
Chroma subsampling : 4:2:0<br>
Bit depth : 10 bits<br>
Bits/(Pixel*Frame) : 0.078<br>
Stream size : 13.0 GiB (98%)<br>
Default : Yes<br>
Forced : No<br>
<br>
Audio<br>
ID : 2<br>
Format : E-AC-3<br>
Format/Info : Enhanced AC-3<br>
Commercial name : Dolby Digital Plus<br>
Codec ID : A_EAC3<br>
Duration : 2 h 1 min<br>
Bit rate mode : Constant<br>
Bit rate : 256 kb/s<br>
Channel(s) : 6 channels<br>
Channel layout : L R C LFE Ls Rs<br>
Sampling rate : 48.0 kHz<br>
Frame rate : 31.250 FPS (1536 SPF)<br>
Compression mode : Lossy<br>
Stream size : 222 MiB (2%)<br>
Language : English<br>
Service kind : Complete Main<br>
Default : Yes<br>
Forced : No<br>
<br>
Text #1<br>
ID : 3<br>
Format : UTF-8<br>
Codec ID : S_TEXT/UTF8<br>
Codec ID/Info : UTF-8 Plain Text<br>
Duration : 2 h 0 min<br>
Bit rate : 82 b/s<br>
Frame rate : 0.296 FPS<br>
Count of elements : 2149<br>
Stream size : 73.4 KiB (0%)<br>
Title : English<br>
Language : English<br>
Default : No<br>
Forced : No<br>
<br>
Text #2<br>
ID : 4<br>
Format : UTF-8<br>
Codec ID : S_TEXT/UTF8<br>
Codec ID/Info : UTF-8 Plain Text<br>
Duration : 2 h 0 min<br>
Bit rate : 84 b/s<br>
Frame rate : 0.294 FPS<br>
Count of elements : 2133<br>
Stream size : 75.0 KiB (0%)<br>
Title : Spanish<br>
Language : Spanish<br>
Default : No<br>
Forced : No</div>
</div><br>
<div class="bbCodeBlock bbCodeVfcHH HiddenContent">
<div class="attribution type">Hidden Content:</div>
<blockquote>You must either reply or click 'Like' to see the hidden information contained here.</blockquote>
</div></div>
<div class="messageTextEndMarker">&nbsp;</div>
</blockquote>
</article>]]></description>
                <author><![CDATA[mariellisaa]]></author>
                </item>

                </channel></rss>